<svg xmlns="http://www.w3.org/2000/svg" viewBox="0 0 900 640" width="900" height="640" role="img" aria-label="ヒストグラムと箱ひげ図">
  <defs>
    <linearGradient id="bgD" x1="0" y1="0" x2="1" y2="1">
      <stop offset="0" stop-color="#1b1932"/><stop offset="1" stop-color="#080a16"/>
    </linearGradient>
    <radialGradient id="gD" cx="0.7" cy="0.3" r="0.6">
      <stop offset="0" stop-color="#a89cf5" stop-opacity="0.28"/><stop offset="1" stop-color="#a89cf5" stop-opacity="0"/>
    </radialGradient>
  </defs>
  <rect width="900" height="640" fill="url(#bgD)"/>
  <rect width="900" height="640" fill="url(#gD)"/>
  <g transform="translate(120 430)">
    <line x1="-30" y1="0" x2="660" y2="0" stroke="#edf3fb" stroke-opacity="0.45" stroke-width="2.4"/>
    <g fill="#a89cf5" fill-opacity="0.55" stroke="#a89cf5" stroke-opacity="0.9" stroke-width="2">
      <rect x="10" y="-70" width="72" height="70"/>
      <rect x="90" y="-142" width="72" height="142"/>
      <rect x="170" y="-232" width="72" height="232"/>
      <rect x="250" y="-286" width="72" height="286"/>
      <rect x="330" y="-198" width="72" height="198"/>
      <rect x="410" y="-118" width="72" height="118"/>
      <rect x="490" y="-56" width="72" height="56"/>
    </g>
    <path d="M46 -70L126 -142L206 -232L286 -286L366 -198L446 -118L526 -56" fill="none" stroke="#edf3fb" stroke-opacity="0.55" stroke-width="2.6" stroke-dasharray="8 8"/>
  </g>
  <g transform="translate(120 540)" stroke="#79ddc3" stroke-width="3" fill="none">
    <line x1="20" y1="0" x2="560" y2="0" stroke-opacity="0.35"/>
    <line x1="120" y1="-26" x2="120" y2="26"/>
    <line x1="470" y1="-26" x2="470" y2="26"/>
    <rect x="200" y="-30" width="200" height="60" fill="#79ddc3" fill-opacity="0.16"/>
    <line x1="290" y1="-30" x2="290" y2="30" stroke="#edf3fb" stroke-opacity="0.85"/>
  </g>
  <text x="70" y="128" font-size="46" fill="#edf3fb" fill-opacity="0.68" font-family="Georgia, serif">中央値・四分位</text>
</svg>
